<svg width="53" height="40" viewBox="0 0 53 40" fill="none" xmlns="http://www.w3.org/2000/svg">
<rect x="18.0488" y="22.0229" width="3.21863" height="3.21863" rx="1" fill="#852BAF"/>
<rect x="25.2598" y="22.0229" width="3.21863" height="3.21863" rx="1" fill="#852BAF"/>
<rect x="21.6523" y="22.0229" width="3.21863" height="3.21863" rx="1" fill="#852BAF"/>
<rect x="28.8633" y="22.0229" width="3.21863" height="3.21863" rx="1" fill="#C64EFE"/>
<rect x="18.0488" y="25.6279" width="3.21863" height="3.21863" rx="1" fill="#852BAF"/>
<rect x="18.0488" y="29.2324" width="3.21863" height="3.21863" rx="1" fill="#C64EFE"/>
<rect x="25.2598" y="29.2324" width="3.21863" height="3.21863" rx="1" fill="#852BAF"/>
<rect x="21.6523" y="29.2324" width="3.21863" height="3.21863" rx="1" fill="#852BAF"/>
<rect x="28.8633" y="29.2324" width="3.21863" height="3.21863" rx="1" fill="#FC3F78"/>
<rect x="32.4688" y="29.2324" width="3.21863" height="3.21863" rx="1" fill="#FF7CA3"/>
<rect x="32.4688" y="22.0229" width="3.21863" height="3.21863" rx="1" fill="#852BAF"/>
<rect x="25.2598" y="25.6279" width="3.21863" height="3.21863" rx="1" fill="#C64EFE"/>
<rect x="21.6523" y="25.6279" width="3.21863" height="3.21863" rx="1" fill="#C64EFE"/>
<rect x="28.8633" y="25.6279" width="3.21863" height="3.21863" rx="1" fill="#852BAF"/>
<rect x="32.4688" y="25.6279" width="3.21863" height="3.21863" rx="1" fill="#FC3F78"/>
<rect x="18.0488" y="36.4424" width="3.21863" height="3.21863" rx="1" fill="#FC3F78"/>
<rect x="25.2598" y="36.4424" width="3.21863" height="3.21863" rx="1" fill="#FC3F78"/>
<rect x="21.6523" y="36.4424" width="3.21863" height="3.21863" rx="1" fill="#FF7CA3"/>
<rect x="28.8633" y="36.4424" width="3.21863" height="3.21863" rx="1" fill="#FC3F78"/>
<rect x="32.4688" y="36.4424" width="3.21863" height="3.21863" rx="1" fill="#FC3F78"/>
<rect x="25.2598" y="32.8374" width="3.21863" height="3.21863" rx="1" fill="#FF7CA3"/>
<rect x="21.6523" y="32.8374" width="3.21863" height="3.21863" rx="1" fill="#FC3F78"/>
<rect x="28.8633" y="32.8374" width="3.21863" height="3.21863" rx="1" fill="#FF7CA3"/>
<rect x="32.4688" y="32.8374" width="3.21863" height="3.21863" rx="1" fill="#FC3F78"/>
<path d="M9.06759 20.6031L4.0117 15.0493L1.76953 18.2696L9.06759 20.6031Z" fill="url(#paint0_linear_7993_25384)"/>
<path d="M50.4957 15.2905L52.1711 19.0331L44.0879 20.1986L50.4957 15.2905Z" fill="url(#paint1_linear_7993_25384)"/>
<path d="M7.09789 30.4094L0.609375 30.0747L1.62537 33.7663L7.09789 30.4094Z" fill="url(#paint2_linear_7993_25384)"/>
<path d="M28.8712 0.65332L27.4023 6.56781L24.8652 0.863821L28.8712 0.65332Z" fill="url(#paint3_linear_7993_25384)"/>
<path d="M46.1777 33.5454L52.5961 34.2796L51.0845 37.2838L46.1777 33.5454Z" fill="url(#paint4_linear_7993_25384)"/>
<path d="M14.3245 7.85118V7.84945C13.0323 7.84945 11.9844 6.77753 11.9844 5.45557H11.9827C11.9827 6.77787 10.9349 7.84945 9.64258 7.84945V7.85118C10.9352 7.85118 11.9827 8.92311 11.9827 10.2451H11.9844C11.9844 8.92276 13.0323 7.85118 14.3245 7.85118Z" fill="url(#paint5_linear_7993_25384)"/>
<path d="M41.7192 7.21617L41.7196 7.21374C40.0486 6.8562 38.9774 5.18086 39.3269 3.47154L39.3245 3.47119C38.975 5.18051 37.3373 6.27637 35.6664 5.91883L35.666 5.92126C37.337 6.27879 38.4082 7.95413 38.0587 9.66346L38.0611 9.6638C38.4109 7.95448 40.0486 6.85863 41.7192 7.21617Z" fill="url(#paint6_linear_7993_25384)"/>
<path d="M46.1763 27.485L46.177 27.4826C44.4267 26.9093 43.4623 24.993 44.0226 23.2028L44.0202 23.2021C43.4599 24.9926 41.5865 25.9792 39.8366 25.406L39.8359 25.4084C41.5862 25.9817 42.5507 27.898 41.9903 29.6881L41.9927 29.6888C42.553 27.8984 44.426 26.9117 46.1763 27.485Z" fill="url(#paint7_linear_7993_25384)"/>
<path d="M28.1022 20.7875L18.9289 19.7275C16.8339 19.4854 15.3264 17.584 15.5685 15.4889C15.7496 13.9231 16.8038 12.6819 18.3196 12.2495C19.8358 11.8176 21.3859 12.3167 22.3654 13.5516L28.1022 20.7875ZM19.6706 13.5136C19.3254 13.4736 18.9907 13.5095 18.7019 13.5917C17.9469 13.8066 17.0914 14.4602 16.9541 15.6492C16.8005 16.9801 17.7579 18.1879 19.0888 18.3415L24.9158 19.0147L21.2715 14.418C20.8124 13.8392 20.2281 13.5779 19.6706 13.5136Z" fill="url(#paint8_linear_7993_25384)"/>
<path d="M33.9291 21.461L24.7559 20.401L31.9922 14.6641C33.2271 13.6846 34.8502 13.5528 36.2282 14.319C37.6059 15.0852 38.3492 16.5347 38.1681 18.1006C37.9256 20.1956 36.0242 21.7031 33.9291 21.461ZM28.2624 19.4014L34.0893 20.0746C35.4203 20.2282 36.6281 19.2708 36.7821 17.9399C36.9194 16.7504 36.2358 15.9191 35.5496 15.5376C34.864 15.1566 33.7968 15.0135 32.859 15.7567L28.2624 19.4014Z" fill="url(#paint9_linear_7993_25384)"/>
<path d="M29.1677 20.2086C28.9979 21.6772 27.6703 22.7298 26.2017 22.5603C24.7334 22.3905 23.6805 21.0625 23.8499 19.5942C24.0194 18.1256 25.3474 17.0731 26.816 17.2425C28.2846 17.412 29.3376 18.7399 29.1677 20.2086Z" fill="url(#paint10_linear_7993_25384)"/>
<defs>
<linearGradient id="paint0_linear_7993_25384" x1="1.76953" y1="17.8262" x2="9.06759" y2="17.8262" gradientUnits="userSpaceOnUse">
<stop stop-color="#FEB014"/>
<stop offset="0.484" stop-color="#FFE486"/>
<stop offset="1" stop-color="#F5B924"/>
</linearGradient>
<linearGradient id="paint1_linear_7993_25384" x1="44.0879" y1="17.7446" x2="52.1711" y2="17.7446" gradientUnits="userSpaceOnUse">
<stop stop-color="#FEB014"/>
<stop offset="0.484" stop-color="#FFE486"/>
<stop offset="1" stop-color="#F5B924"/>
</linearGradient>
<linearGradient id="paint2_linear_7993_25384" x1="3.85363" y1="30.0747" x2="3.85363" y2="33.7663" gradientUnits="userSpaceOnUse">
<stop stop-color="#BB1753"/>
<stop offset="0.495" stop-color="#FF5392"/>
<stop offset="1" stop-color="#BB1753"/>
</linearGradient>
<linearGradient id="paint3_linear_7993_25384" x1="26.8682" y1="0.65332" x2="26.8682" y2="6.56781" gradientUnits="userSpaceOnUse">
<stop stop-color="#BB1753"/>
<stop offset="0.495" stop-color="#FF5392"/>
<stop offset="1" stop-color="#BB1753"/>
</linearGradient>
<linearGradient id="paint4_linear_7993_25384" x1="49.3869" y1="33.5454" x2="49.3869" y2="37.2838" gradientUnits="userSpaceOnUse">
<stop stop-color="#BB1753"/>
<stop offset="0.495" stop-color="#FF5392"/>
<stop offset="1" stop-color="#BB1753"/>
</linearGradient>
<linearGradient id="paint5_linear_7993_25384" x1="9.64258" y1="7.85032" x2="14.3245" y2="7.85032" gradientUnits="userSpaceOnUse">
<stop stop-color="#FEB014"/>
<stop offset="0.484" stop-color="#FFE486"/>
<stop offset="1" stop-color="#F5B924"/>
</linearGradient>
<linearGradient id="paint6_linear_7993_25384" x1="35.666" y1="6.5675" x2="41.7196" y2="6.5675" gradientUnits="userSpaceOnUse">
<stop stop-color="#FEB014"/>
<stop offset="0.484" stop-color="#FFE486"/>
<stop offset="1" stop-color="#F5B924"/>
</linearGradient>
<linearGradient id="paint7_linear_7993_25384" x1="39.8359" y1="26.4455" x2="46.177" y2="26.4455" gradientUnits="userSpaceOnUse">
<stop stop-color="#FEB014"/>
<stop offset="0.484" stop-color="#FFE486"/>
<stop offset="1" stop-color="#F5B924"/>
</linearGradient>
<linearGradient id="paint8_linear_7993_25384" x1="15.543" y1="16.4421" x2="28.1022" y2="16.4421" gradientUnits="userSpaceOnUse">
<stop stop-color="#FEB014"/>
<stop offset="0.484" stop-color="#FFE486"/>
<stop offset="1" stop-color="#F5B924"/>
</linearGradient>
<linearGradient id="paint9_linear_7993_25384" x1="24.7559" y1="17.6556" x2="38.195" y2="17.6556" gradientUnits="userSpaceOnUse">
<stop stop-color="#FEB014"/>
<stop offset="0.484" stop-color="#FFE486"/>
<stop offset="1" stop-color="#F5B924"/>
</linearGradient>
<linearGradient id="paint10_linear_7993_25384" x1="23.832" y1="19.9014" x2="29.1857" y2="19.9014" gradientUnits="userSpaceOnUse">
<stop stop-color="#FEB014"/>
<stop offset="0.484" stop-color="#FFE486"/>
<stop offset="1" stop-color="#F5B924"/>
</linearGradient>
</defs>
</svg>
