<svg width="159" height="53" viewBox="0 0 159 53" fill="none" xmlns="http://www.w3.org/2000/svg">
<rect x="23.6953" y="29.0332" width="4.37302" height="4.37302" rx="1" fill="#852BAF"/>
<rect x="33.4883" y="29.0332" width="4.37302" height="4.37302" rx="1" fill="#852BAF"/>
<rect x="28.5898" y="29.0332" width="4.37302" height="4.37302" rx="1" fill="#852BAF"/>
<rect x="38.3906" y="29.0332" width="4.37302" height="4.37302" rx="1" fill="#C64EFE"/>
<rect x="23.6953" y="33.9307" width="4.37302" height="4.37302" rx="1" fill="#852BAF"/>
<rect x="23.6953" y="38.8281" width="4.37302" height="4.37302" rx="1" fill="#C64EFE"/>
<rect x="33.4883" y="38.8281" width="4.37302" height="4.37302" rx="1" fill="#852BAF"/>
<rect x="28.5898" y="38.8281" width="4.37302" height="4.37302" rx="1" fill="#852BAF"/>
<rect x="38.3906" y="38.8281" width="4.37302" height="4.37302" rx="1" fill="#FC3F78"/>
<rect x="43.2852" y="38.8281" width="4.37302" height="4.37302" rx="1" fill="#FF7CA3"/>
<rect x="43.2852" y="29.0332" width="4.37302" height="4.37302" rx="1" fill="#852BAF"/>
<rect x="33.4883" y="33.9307" width="4.37302" height="4.37302" rx="1" fill="#C64EFE"/>
<rect x="28.5898" y="33.9307" width="4.37302" height="4.37302" rx="1" fill="#C64EFE"/>
<rect x="38.3906" y="33.9307" width="4.37302" height="4.37302" rx="1" fill="#852BAF"/>
<rect x="43.2852" y="33.9307" width="4.37302" height="4.37302" rx="1" fill="#FC3F78"/>
<rect x="23.6953" y="48.623" width="4.37302" height="4.37302" rx="1" fill="#FC3F78"/>
<rect x="33.4883" y="48.627" width="4.37302" height="4.37302" rx="1" fill="#FC3F78"/>
<rect x="28.5898" y="48.627" width="4.37302" height="4.37302" rx="1" fill="#FF7CA3"/>
<rect x="38.3906" y="48.627" width="4.37302" height="4.37302" rx="1" fill="#FC3F78"/>
<rect x="43.2852" y="48.627" width="4.37302" height="4.37302" rx="1" fill="#FC3F78"/>
<rect x="33.4883" y="43.7295" width="4.37302" height="4.37302" rx="1" fill="#FF7CA3"/>
<rect x="28.5898" y="43.7295" width="4.37302" height="4.37302" rx="1" fill="#FC3F78"/>
<rect x="38.3906" y="43.7295" width="4.37302" height="4.37302" rx="1" fill="#FF7CA3"/>
<rect x="43.2852" y="43.7295" width="4.37302" height="4.37302" rx="1" fill="#FC3F78"/>
<path d="M11.4898 27.1014L4.62056 19.5557L1.57422 23.9309L11.4898 27.1014Z" fill="url(#paint0_linear_4575_27887)"/>
<path d="M67.7803 19.8867L70.0565 24.9716L59.0742 26.5552L67.7803 19.8867Z" fill="url(#paint1_linear_4575_27887)"/>
<path d="M8.81568 40.4264L0 39.9717L1.38039 44.9873L8.81568 40.4264Z" fill="url(#paint2_linear_4575_27887)"/>
<path d="M38.3959 0L36.4002 8.03577L32.9531 0.285998L38.3959 0Z" fill="url(#paint3_linear_4575_27887)"/>
<path d="M61.9102 44.6875L70.6305 45.685L68.5767 49.7667L61.9102 44.6875Z" fill="url(#paint4_linear_4575_27887)"/>
<path d="M18.6346 9.78315V9.78079C16.8789 9.78079 15.4552 8.32441 15.4552 6.52832H15.4529C15.4529 8.32488 14.0292 9.78079 12.2734 9.78079V9.78315C14.0297 9.78315 15.4529 11.2395 15.4529 13.0356H15.4552C15.4552 11.2391 16.8789 9.78315 18.6346 9.78315Z" fill="url(#paint5_linear_4575_27887)"/>
<path d="M55.861 8.92018L55.8615 8.91688C53.5912 8.4311 52.1357 6.15489 52.6106 3.8325L52.6074 3.83203C52.1325 6.15442 49.9074 7.64331 47.6372 7.15753L47.6367 7.16083C49.907 7.64661 51.3624 9.92282 50.8875 12.2452L50.8908 12.2457C51.3661 9.92329 53.5912 8.4344 55.861 8.92018Z" fill="url(#paint6_linear_4575_27887)"/>
<path d="M61.9113 36.4586L61.9122 36.4553C59.5342 35.6764 58.2238 33.0728 58.9852 30.6406L58.9819 30.6396C58.2206 33.0723 55.6753 34.4128 53.2978 33.6339L53.2969 33.6372C55.6749 34.4161 56.9853 37.0197 56.2239 39.4519L56.2271 39.4528C56.9885 37.0202 59.5333 35.6797 61.9113 36.4586Z" fill="url(#paint7_linear_4575_27887)"/>
<path d="M37.3528 27.3548L24.8895 25.9145C22.043 25.5857 19.9949 23.0023 20.3237 20.1558C20.5698 18.0283 22.0021 16.342 24.0616 15.7545C26.1216 15.1676 28.2276 15.8458 29.5584 17.5236L37.3528 27.3548ZM25.8971 17.472C25.4281 17.4176 24.9734 17.4664 24.581 17.5781C23.5552 17.8701 22.3928 18.7581 22.2063 20.3735C21.9976 22.1818 23.2984 23.8228 25.1066 24.0314L33.0235 24.9461L28.0722 18.7008C27.4485 17.9143 26.6546 17.5594 25.8971 17.472Z" fill="url(#paint8_linear_4575_27887)"/>
<path d="M45.2719 28.2716L32.8086 26.8314L42.6403 19.037C44.3181 17.7062 46.5233 17.527 48.3957 18.5681C50.2674 19.6091 51.2773 21.5784 51.0312 23.7059C50.7018 26.5524 48.1184 28.6005 45.2719 28.2716ZM37.5728 25.4733L45.4896 26.388C47.2979 26.5966 48.9389 25.2959 49.1481 23.4876C49.3347 21.8716 48.4059 20.742 47.4737 20.2238C46.542 19.7061 45.0921 19.5116 43.818 20.5215L37.5728 25.4733Z" fill="url(#paint9_linear_4575_27887)"/>
<path d="M38.7963 26.5669C38.5655 28.5623 36.7618 29.9923 34.7664 29.7621C32.7716 29.5313 31.341 27.727 31.5712 25.7322C31.8014 23.7368 33.6057 22.3068 35.6011 22.537C37.5964 22.7672 39.027 24.5715 38.7963 26.5669Z" fill="url(#paint10_linear_4575_27887)"/>
<path d="M80.8087 31.7734V31.4374C81.3847 31.4374 81.7207 31.3308 81.8167 31.1174V23.0694C81.7207 22.8561 81.3847 22.7494 80.8087 22.7494V22.4134H84.4247C85.7474 22.4134 86.7501 22.6534 87.4327 23.1334C88.1154 23.6134 88.4567 24.1628 88.4567 24.7814C88.4567 25.3681 88.2807 25.8854 87.9287 26.3334C87.5767 26.7708 87.0541 27.0908 86.3607 27.2934L88.4887 31.1014C88.5954 31.3254 88.9474 31.4374 89.5447 31.4374V31.7734H88.8567C88.1101 31.7734 87.6247 31.7308 87.4007 31.6454C87.1767 31.5601 86.9527 31.3254 86.7287 30.9414L84.7927 27.5174H83.2887V31.1174C83.3847 31.3308 83.7207 31.4374 84.2967 31.4374V31.7734H80.8087ZM83.2887 22.9574V26.9734H84.6167C85.4701 26.9734 86.0567 26.8081 86.3767 26.4774C86.6967 26.1468 86.8567 25.5868 86.8567 24.7974C86.8567 24.2108 86.6754 23.7574 86.3127 23.4374C85.9607 23.1174 85.3314 22.9574 84.4247 22.9574H83.2887ZM90.1056 31.7734V31.4374C90.6816 31.4374 91.0176 31.3308 91.1136 31.1174V23.0694C91.0176 22.8561 90.6816 22.7494 90.1056 22.7494V22.4134H96.5536V23.9654H96.2176C96.2176 23.3894 96.1109 23.0534 95.8976 22.9574H92.5856V26.6374H94.8256C95.0389 26.5414 95.1456 26.2054 95.1456 25.6294H95.4816V28.1894H95.1456C95.1456 27.6134 95.0389 27.2774 94.8256 27.1814H92.5856V31.2294H96.2336C96.5003 31.1121 96.7403 30.7761 96.9536 30.2214H97.2736L96.8896 31.7734H90.1056ZM105.639 22.4134V22.7494C105.148 22.7494 104.839 22.8134 104.711 22.9414L107.159 29.6454L109.511 23.0374C109.404 22.8454 109.074 22.7494 108.519 22.7494V22.4134H111.143V22.7494C110.546 22.7494 110.21 22.8614 110.135 23.0854L107.031 31.7734H106.263L104.263 26.1894L102.279 31.7734H101.511L98.407 23.0854C98.3216 22.8614 97.9803 22.7494 97.383 22.7494V22.4134H100.887V22.7494C100.396 22.7494 100.087 22.8134 99.959 22.9414L102.407 29.6294L103.943 25.2934L103.159 23.0854C103.084 22.8614 102.743 22.7494 102.135 22.7494V22.4134H105.639ZM115.622 31.7734V31.4374C116.113 31.4374 116.422 31.3734 116.55 31.2454L115.654 28.7974H112.582L111.75 31.1494C111.857 31.3414 112.187 31.4374 112.742 31.4374V31.7734H110.118V31.4374C110.715 31.4374 111.051 31.3254 111.126 31.1014L114.23 22.4134H114.998L118.102 31.1014C118.177 31.3254 118.518 31.4374 119.126 31.4374V31.7734H115.622ZM114.102 24.5414L112.774 28.2694H115.462L114.102 24.5414ZM119.652 31.7734V31.4374C120.228 31.4374 120.564 31.3308 120.66 31.1174V23.0694C120.564 22.8561 120.228 22.7494 119.652 22.7494V22.4134H123.268C124.591 22.4134 125.594 22.6534 126.276 23.1334C126.959 23.6134 127.3 24.1628 127.3 24.7814C127.3 25.3681 127.124 25.8854 126.772 26.3334C126.42 26.7708 125.898 27.0908 125.204 27.2934L127.332 31.1014C127.439 31.3254 127.791 31.4374 128.388 31.4374V31.7734H127.7C126.954 31.7734 126.468 31.7308 126.244 31.6454C126.02 31.5601 125.796 31.3254 125.572 30.9414L123.636 27.5174H122.132V31.1174C122.228 31.3308 122.564 31.4374 123.14 31.4374V31.7734H119.652ZM122.132 22.9574V26.9734H123.46C124.314 26.9734 124.9 26.8081 125.22 26.4774C125.54 26.1468 125.7 25.5868 125.7 24.7974C125.7 24.2108 125.519 23.7574 125.156 23.4374C124.804 23.1174 124.175 22.9574 123.268 22.9574H122.132ZM128.949 31.7734V31.4374C129.525 31.4374 129.861 31.3308 129.957 31.1174V23.0694C129.861 22.8561 129.525 22.7494 128.949 22.7494V22.4134H132.629C134.048 22.4134 135.189 22.8454 136.053 23.7094C136.917 24.5628 137.349 25.6828 137.349 27.0694C137.349 28.4561 136.928 29.5868 136.085 30.4614C135.243 31.3361 134.155 31.7734 132.821 31.7734H128.949ZM131.429 22.8774V31.2294H132.821C133.163 31.2294 133.493 31.1548 133.813 31.0054C134.144 30.8454 134.459 30.6108 134.757 30.3014C135.056 29.9921 135.296 29.5601 135.477 29.0054C135.659 28.4508 135.749 27.8108 135.749 27.0854C135.749 25.6988 135.435 24.6534 134.805 23.9494C134.187 23.2348 133.461 22.8774 132.629 22.8774H131.429ZM80.8087 49.7734V49.4374C81.3847 49.4374 81.7207 49.3308 81.8167 49.1174V41.0694C81.7207 40.8561 81.3847 40.7494 80.8087 40.7494V40.4134H84.4247C85.7367 40.4134 86.7341 40.6641 87.4167 41.1654C88.1101 41.6668 88.4567 42.2268 88.4567 42.8454C88.4567 43.6454 88.1367 44.2908 87.4967 44.7814C86.8567 45.2721 85.8967 45.5174 84.6167 45.5174H83.2887V49.1174C83.3847 49.3308 83.7207 49.4374 84.2967 49.4374V49.7734H80.8087ZM83.2887 40.9574V44.9734H84.6167C85.4381 44.9734 86.0141 44.8134 86.3447 44.4934C86.6861 44.1628 86.8567 43.6188 86.8567 42.8614C86.8567 41.5921 86.0461 40.9574 84.4247 40.9574H83.2887ZM89.34 49.7734V49.4374C89.916 49.4374 90.252 49.3308 90.348 49.1174V41.0694C90.252 40.8561 89.916 40.7494 89.34 40.7494V40.4134H92.828V40.7494C92.252 40.7494 91.916 40.8561 91.82 41.0694V49.2294H95.468C95.7346 49.1121 95.9746 48.7761 96.188 48.2214H96.508L96.124 49.7734H89.34ZM101.966 49.7734V49.4374C102.457 49.4374 102.766 49.3734 102.894 49.2454L101.998 46.7974H98.9258L98.0938 49.1494C98.2005 49.3414 98.5312 49.4374 99.0858 49.4374V49.7734H96.4618V49.4374C97.0592 49.4374 97.3952 49.3254 97.4698 49.1014L100.574 40.4134H101.342L104.446 49.1014C104.521 49.3254 104.862 49.4374 105.47 49.4374V49.7734H101.966ZM100.446 42.5414L99.1178 46.2694H101.806L100.446 42.5414ZM105.996 49.7734V49.4374C106.572 49.4374 106.908 49.3308 107.004 49.1174V41.0694C106.908 40.8561 106.572 40.7494 105.996 40.7494V40.4134H108.14L113.436 46.9574V41.0694C113.34 40.8561 113.004 40.7494 112.428 40.7494V40.4134H114.988V40.7494C114.412 40.7494 114.076 40.8561 113.98 41.0694V49.7734H113.836L107.548 41.8214V49.1174C107.644 49.3308 107.98 49.4374 108.556 49.4374V49.7734H105.996ZM116.184 49.7734V49.4374C116.76 49.4374 117.096 49.3308 117.192 49.1174V41.0694C117.096 40.8561 116.76 40.7494 116.184 40.7494V40.4134H118.328L123.624 46.9574V41.0694C123.528 40.8561 123.192 40.7494 122.616 40.7494V40.4134H125.176V40.7494C124.6 40.7494 124.264 40.8561 124.168 41.0694V49.7734H124.024L117.736 41.8214V49.1174C117.832 49.3308 118.168 49.4374 118.744 49.4374V49.7734H116.184ZM126.371 49.7734V49.4374C126.947 49.4374 127.283 49.3308 127.379 49.1174V41.0694C127.283 40.8561 126.947 40.7494 126.371 40.7494V40.4134H132.819V41.9654H132.483C132.483 41.3894 132.377 41.0534 132.163 40.9574H128.851V44.6374H131.091C131.305 44.5414 131.411 44.2054 131.411 43.6294H131.747V46.1894H131.411C131.411 45.6134 131.305 45.2774 131.091 45.1814H128.851V49.2294H132.499C132.766 49.1121 133.006 48.7761 133.219 48.2214H133.539L133.155 49.7734H126.371ZM134.481 49.7734V49.4374C135.057 49.4374 135.393 49.3308 135.489 49.1174V41.0694C135.393 40.8561 135.057 40.7494 134.481 40.7494V40.4134H138.097C139.419 40.4134 140.422 40.6534 141.105 41.1334C141.787 41.6134 142.129 42.1628 142.129 42.7814C142.129 43.3681 141.953 43.8854 141.601 44.3334C141.249 44.7708 140.726 45.0908 140.033 45.2934L142.161 49.1014C142.267 49.3254 142.619 49.4374 143.217 49.4374V49.7734H142.529C141.782 49.7734 141.297 49.7308 141.073 49.6454C140.849 49.5601 140.625 49.3254 140.401 48.9414L138.465 45.5174H136.961V49.1174C137.057 49.3308 137.393 49.4374 137.969 49.4374V49.7734H134.481ZM136.961 40.9574V44.9734H138.289C139.142 44.9734 139.729 44.8081 140.049 44.4774C140.369 44.1468 140.529 43.5868 140.529 42.7974C140.529 42.2108 140.347 41.7574 139.985 41.4374C139.633 41.1174 139.003 40.9574 138.097 40.9574H136.961ZM147.089 49.9334C146.567 49.9334 146.033 49.8534 145.489 49.6934C144.945 49.5334 144.663 49.4534 144.641 49.4534C144.577 49.4534 144.503 49.4854 144.417 49.5494C144.332 49.6134 144.289 49.6881 144.289 49.7734H143.921V47.5494H144.273C144.391 48.1894 144.705 48.6588 145.217 48.9574C145.74 49.2454 146.332 49.3894 146.993 49.3894C147.559 49.3894 148.023 49.2614 148.385 49.0054C148.748 48.7494 148.929 48.3654 148.929 47.8534C148.929 47.6188 148.876 47.4054 148.769 47.2134C148.673 47.0214 148.519 46.8454 148.305 46.6854C148.103 46.5148 147.905 46.3761 147.713 46.2694C147.521 46.1521 147.271 46.0134 146.961 45.8534C146.663 45.6828 146.433 45.5494 146.273 45.4534C145.9 45.2188 145.623 45.0428 145.441 44.9254C145.26 44.7974 145.025 44.6108 144.737 44.3654C144.46 44.1201 144.257 43.8641 144.129 43.5974C144.001 43.3308 143.937 43.0428 143.937 42.7334C143.937 42.1041 144.225 41.5334 144.801 41.0214C145.377 40.5094 146.023 40.2534 146.737 40.2534C147.047 40.2534 147.431 40.3334 147.889 40.4934C148.348 40.6534 148.609 40.7334 148.673 40.7334C148.801 40.7334 148.865 40.6268 148.865 40.4134H149.233L149.393 42.4454H149.041C148.977 41.9761 148.743 41.5868 148.337 41.2774C147.932 40.9574 147.404 40.7974 146.753 40.7974C146.263 40.7974 145.868 40.9574 145.569 41.2774C145.281 41.5868 145.137 41.9014 145.137 42.2214C145.137 42.4241 145.185 42.6161 145.281 42.7974C145.377 42.9681 145.527 43.1281 145.729 43.2774C145.932 43.4268 146.124 43.5601 146.305 43.6774C146.487 43.7841 146.727 43.9174 147.025 44.0774C147.335 44.2374 147.569 44.3654 147.729 44.4614C148.167 44.7281 148.481 44.9254 148.673 45.0534C148.865 45.1814 149.111 45.3788 149.409 45.6454C149.719 45.9121 149.932 46.1894 150.049 46.4774C150.177 46.7548 150.241 47.0641 150.241 47.4054C150.241 48.1948 149.921 48.8134 149.281 49.2614C148.641 49.7094 147.911 49.9334 147.089 49.9334Z" fill="#4F0B6E"/>
<defs>
<linearGradient id="paint0_linear_4575_27887" x1="1.57422" y1="23.3285" x2="11.4898" y2="23.3285" gradientUnits="userSpaceOnUse">
<stop stop-color="#FEB014"/>
<stop offset="0.484" stop-color="#FFE486"/>
<stop offset="1" stop-color="#F5B924"/>
</linearGradient>
<linearGradient id="paint1_linear_4575_27887" x1="59.0742" y1="23.2209" x2="70.0565" y2="23.2209" gradientUnits="userSpaceOnUse">
<stop stop-color="#FEB014"/>
<stop offset="0.484" stop-color="#FFE486"/>
<stop offset="1" stop-color="#F5B924"/>
</linearGradient>
<linearGradient id="paint2_linear_4575_27887" x1="4.40784" y1="39.9717" x2="4.40784" y2="44.9873" gradientUnits="userSpaceOnUse">
<stop stop-color="#BB1753"/>
<stop offset="0.495" stop-color="#FF5392"/>
<stop offset="1" stop-color="#BB1753"/>
</linearGradient>
<linearGradient id="paint3_linear_4575_27887" x1="35.6745" y1="0" x2="35.6745" y2="8.03577" gradientUnits="userSpaceOnUse">
<stop stop-color="#BB1753"/>
<stop offset="0.495" stop-color="#FF5392"/>
<stop offset="1" stop-color="#BB1753"/>
</linearGradient>
<linearGradient id="paint4_linear_4575_27887" x1="66.2703" y1="44.6875" x2="66.2703" y2="49.7667" gradientUnits="userSpaceOnUse">
<stop stop-color="#BB1753"/>
<stop offset="0.495" stop-color="#FF5392"/>
<stop offset="1" stop-color="#BB1753"/>
</linearGradient>
<linearGradient id="paint5_linear_4575_27887" x1="12.2734" y1="9.78197" x2="18.6346" y2="9.78197" gradientUnits="userSpaceOnUse">
<stop stop-color="#FEB014"/>
<stop offset="0.484" stop-color="#FFE486"/>
<stop offset="1" stop-color="#F5B924"/>
</linearGradient>
<linearGradient id="paint6_linear_4575_27887" x1="47.6367" y1="8.03886" x2="55.8615" y2="8.03886" gradientUnits="userSpaceOnUse">
<stop stop-color="#FEB014"/>
<stop offset="0.484" stop-color="#FFE486"/>
<stop offset="1" stop-color="#F5B924"/>
</linearGradient>
<linearGradient id="paint7_linear_4575_27887" x1="53.2969" y1="35.0462" x2="61.9122" y2="35.0462" gradientUnits="userSpaceOnUse">
<stop stop-color="#FEB014"/>
<stop offset="0.484" stop-color="#FFE486"/>
<stop offset="1" stop-color="#F5B924"/>
</linearGradient>
<linearGradient id="paint8_linear_4575_27887" x1="20.2891" y1="21.4508" x2="37.3528" y2="21.4508" gradientUnits="userSpaceOnUse">
<stop stop-color="#FEB014"/>
<stop offset="0.484" stop-color="#FFE486"/>
<stop offset="1" stop-color="#F5B924"/>
</linearGradient>
<linearGradient id="paint9_linear_4575_27887" x1="32.8086" y1="23.1014" x2="51.0678" y2="23.1014" gradientUnits="userSpaceOnUse">
<stop stop-color="#FEB014"/>
<stop offset="0.484" stop-color="#FFE486"/>
<stop offset="1" stop-color="#F5B924"/>
</linearGradient>
<linearGradient id="paint10_linear_4575_27887" x1="31.5469" y1="26.1496" x2="38.8207" y2="26.1496" gradientUnits="userSpaceOnUse">
<stop stop-color="#FEB014"/>
<stop offset="0.484" stop-color="#FFE486"/>
<stop offset="1" stop-color="#F5B924"/>
</linearGradient>
</defs>
</svg>
